<svg xmlns="http://www.w3.org/2000/svg" width="24" height="24" viewBox="0 0 24 24">
    <g fill="none" fill-opacity=".5" fill-rule="evenodd">
        <g fill="#FFF" fill-rule="nonzero">
            <g>
                <g>
                    <path d="M12 10.586l6.293-6.293c.39-.39 1.024-.39 1.414 0 .39.39.39 1.024 0 1.414L13.414 12l6.293 6.293c.39.39.39 1.024 0 1.414-.39.39-1.024.39-1.414 0L12 13.414l-6.293 6.293c-.39.39-1.024.39-1.414 0-.39-.39-.39-1.024 0-1.414L10.586 12 4.293 5.707c-.39-.39-.39-1.024 0-1.414.39-.39 1.024-.39 1.414 0L12 10.586z" transform="translate(-1386 -22) translate(1380 16) translate(6 6)"/>
                </g>
            </g>
        </g>
    </g>
</svg>
