<svg xmlns="http://www.w3.org/2000/svg" width="24" height="24" viewBox="0 0 24 24">
    <g fill="none" fill-opacity=".5" fill-rule="evenodd">
        <g fill="#212529" fill-rule="nonzero">
            <g>
                <g>
                    <path d="M7.414 11H19c.552 0 1 .448 1 1s-.448 1-1 1H7.414l3.293 3.293c.39.39.39 1.024 0 1.414-.39.39-1.024.39-1.414 0l-5-5c-.39-.39-.39-1.024 0-1.414l5-5c.39-.39 1.024-.39 1.414 0 .39.39.39 1.024 0 1.414L7.414 11z" transform="translate(-30 -22) translate(24 16) translate(6 6)"/>
                </g>
            </g>
        </g>
    </g>
</svg>
