<svg xmlns="http://www.w3.org/2000/svg" width="400" height="268" viewBox="0 0 400 268">
    <defs>
        <linearGradient id="wrysp4dw5c" x1="61.646%" x2="30.834%" y1="19.933%" y2="88.384%">
            <stop offset="0%" stop-color="#35C25E" stop-opacity=".2"/>
            <stop offset="100%" stop-color="#35C25E" stop-opacity=".8"/>
        </linearGradient>
        <linearGradient id="tpwy2wt31d" x1="61.888%" x2="30.435%" y1="19.933%" y2="88.384%">
            <stop offset="0%" stop-color="#35C25E" stop-opacity=".2"/>
            <stop offset="100%" stop-color="#35C25E" stop-opacity=".8"/>
        </linearGradient>
        <filter id="m0csjitiea" width="105.6%" height="109.6%" x="-2.8%" y="-4.8%" filterUnits="objectBoundingBox">
            <feGaussianBlur in="SourceGraphic" stdDeviation="3.509"/>
        </filter>
        <filter id="zjhpc1fuib" width="104.8%" height="108.2%" x="-2.4%" y="-4.1%" filterUnits="objectBoundingBox">
            <feGaussianBlur in="SourceGraphic" stdDeviation="2.807"/>
        </filter>
    </defs>
    <g fill="none" fill-rule="evenodd">
        <g>
            <g>
                <g>
                    <g>
                        <path fill="#040505" fill-opacity=".04" d="M196.694 24.284c-2.293-1.326-5.766-1.47-7.752-.322L4.266 130.718c-1.985 1.148-1.736 3.156.557 4.481l183.563 106.113c2.292 1.325 5.766 1.47 7.752.321l184.675-106.756c1.988-1.148 1.738-3.156-.557-4.48L196.694 24.283z" filter="url(#m0csjitiea)" transform="translate(-960 -313) translate(960 313.5) translate(5.965 18.62) translate(1.754)"/>
                        <path fill="#040505" fill-opacity=".06" d="M196.423 29.834c-2.143-1.24-5.39-1.375-7.246-.301L16.529 129.446c-1.856 1.074-1.623 2.953.52 4.194l171.607 99.31c2.144 1.24 5.39 1.376 7.247.301l172.647-99.913c1.858-1.074 1.625-2.953-.52-4.193l-171.607-99.31z" filter="url(#zjhpc1fuib)" transform="translate(-960 -313) translate(960 313.5) translate(5.965 18.62) translate(1.754)"/>
                        <path fill="#CED4DA" d="M.352 113.81c-.014-.753.017-1.93 0-2.811-.014-.753.432-1.473 1.358-2.009L188.893.785c2.013-1.163 5.533-1.017 7.857.327l186.054 107.552c1.239.716 1.923 1.769 1.923 2.64-.003.76.01 1.796 0 2.67-.01.765-.417 1.499-1.358 2.043L196.186 224.222c-2.012 1.164-5.533 1.017-7.857-.326L2.274 116.343C1.02 115.618.37 114.691.352 113.81z" transform="translate(-960 -313) translate(960 313.5) translate(5.965 18.62) translate(1.754)"/>
                        <path fill="#F1F3F5" d="M196.75 1.112c-2.324-1.344-5.844-1.49-7.857-.327L1.71 108.99c-2.012 1.164-1.76 3.2.564 4.543L188.33 221.086c2.324 1.343 5.845 1.489 7.857.326L383.37 113.206c2.014-1.163 1.762-3.198-.565-4.542L196.75 1.112z" transform="translate(-960 -313) translate(960 313.5) translate(5.965 18.62) translate(1.754)"/>
                        <g>
                            <path fill="#F9AF2C" d="M7.298 6.96c-.01-.195-.003-.585-.002-.765.003-.506.339-1.011 1.007-1.397 1.341-.776 3.52-.776 4.861 0 .652.376.987.867 1.006 1.36.007.192.002.575 0 .755-.002.506-.338 1.012-1.006 1.398-1.341.775-3.52.775-4.861 0-.647-.374-.982-.86-1.005-1.35z" transform="translate(-960 -313) translate(960 313.5) translate(5.965 18.62) translate(1.754) translate(189.1 4.402)"/>
                            <path fill="#FED44D" d="M8.303 4.798c1.341-.776 3.52-.776 4.861 0 1.342.775 1.342 2.034 0 2.81-1.341.776-3.52.776-4.861 0-1.342-.776-1.342-2.035 0-2.81z" transform="translate(-960 -313) translate(960 313.5) translate(5.965 18.62) translate(1.754) translate(189.1 4.402)"/>
                            <path fill="#2CB354" d="M14.59 11.176c-.009-.196-.002-.585 0-.765.002-.506.338-1.012 1.005-1.398 1.342-.775 3.52-.775 4.862 0 .652.377.987.867 1.006 1.361.007.192.002.575 0 .755-.003.506-.338 1.011-1.006 1.398-1.341.775-3.52.775-4.862 0-.646-.374-.981-.86-1.005-1.35z" transform="translate(-960 -313) translate(960 313.5) translate(5.965 18.62) translate(1.754) translate(189.1 4.402)"/>
                            <path fill="#62DD81" d="M15.595 9.013c1.342-.775 3.52-.775 4.862 0 1.342.776 1.342 2.035 0 2.81-1.341.777-3.52.777-4.862 0-1.341-.775-1.341-2.034 0-2.81z" transform="translate(-960 -313) translate(960 313.5) translate(5.965 18.62) translate(1.754) translate(189.1 4.402)"/>
                            <path fill="#F13642" d="M.005 2.744C-.005 2.55.002 2.16.003 1.98.006 1.473.342.968 1.01.582c1.341-.776 3.52-.776 4.861 0 .652.376.987.867 1.006 1.36.007.193.002.575 0 .755-.002.506-.338 1.012-1.006 1.398-1.341.776-3.52.776-4.861 0-.647-.374-.982-.86-1.005-1.35z" transform="translate(-960 -313) translate(960 313.5) translate(5.965 18.62) translate(1.754) translate(189.1 4.402)"/>
                            <path fill="#FF8488" d="M1.01.582c1.341-.776 3.52-.776 4.861 0 1.342.775 1.342 2.035 0 2.81-1.341.776-3.52.776-4.861 0-1.342-.775-1.342-2.035 0-2.81z" transform="translate(-960 -313) translate(960 313.5) translate(5.965 18.62) translate(1.754) translate(189.1 4.402)"/>
                        </g>
                    </g>
                </g>
                <g>
                    <path fill="#CED4DA" d="M0 85.235c0-.246.018-1.124 0-1.364-.016-.261.132-.513.453-.699L143.879.262c.67-.388 1.844-.34 2.619.108l31.226 18.051c.418.242.635.55.64.844v1.436c-.006.24-.155.468-.452.64L34.486 104.25c-.67.388-1.844.34-2.619-.109L.641 86.092c-.424-.245-.641-.56-.641-.857z" transform="translate(-960 -313) translate(960 313.5) translate(35.439 44.266)"/>
                    <path fill="#F8F9FA" d="M146.498.37c-.775-.447-1.948-.496-2.62-.108L.454 83.172c-.671.388-.587 1.067.188 1.514l31.226 18.051c.775.448 1.948.497 2.62.109l143.425-82.91c.671-.388.587-1.067-.188-1.515L146.498.371z" transform="translate(-960 -313) translate(960 313.5) translate(35.439 44.266)"/>
                    <path fill="#CED4DA" d="M145.096 5.181L141.449 7.289 154.819 15.018 158.466 12.91zM137.803 9.397L135.372 10.802 158.466 24.152 160.897 22.747zM131.725 12.91L129.295 14.315 147.526 24.855 149.957 23.449zM119.571 19.936L117.14 21.341 137.792 33.28 140.223 31.875zM113.493 23.449L111.062 24.855 126.866 33.99 129.297 32.585zM125.648 16.423L123.217 17.828 139.021 26.964 141.452 25.559zM103.77 29.07L100.123 31.178 113.493 38.907 117.14 36.799zM96.477 33.286L94.046 34.691 117.14 48.041 119.571 46.636zM90.399 36.799L87.968 38.205 106.201 48.744 108.631 47.339zM78.244 43.826L75.814 45.231 96.466 57.169 98.897 55.764zM72.167 47.339L69.736 48.744 85.54 57.88 87.971 56.474zM84.322 40.312L81.891 41.718 97.695 50.853 100.126 49.448zM62.443 52.96L58.797 55.068 72.167 62.797 75.814 60.689zM55.151 57.176L52.719 58.581 75.814 71.931 78.244 70.526zM49.073 60.689L46.642 62.094 64.874 72.634 67.305 71.228zM36.918 67.715L34.488 69.12 55.14 81.059 57.571 79.654zM30.841 71.228L28.41 72.634 44.214 81.769 46.645 80.364zM42.996 64.202L40.565 65.607 56.369 74.743 58.8 73.338z" transform="translate(-960 -313) translate(960 313.5) translate(35.439 44.266)"/>
                </g>
                <g>
                    <path fill="#CED4DA" d="M.003 6.564c-.006-.28 0-1.177 0-1.43 0-.246.149-.48.452-.656L7.748.262c.671-.388 1.845-.34 2.619.108l162.496 93.936c.425.245.642.558.642.856v1.404c0 .247-.147.483-.452.659l-7.292 4.216c-.673.388-1.845.339-2.62-.109L.642 7.397c-.412-.239-.634-.542-.64-.833z" transform="translate(-960 -313) translate(960 313.5) translate(191.228 33.024)"/>
                    <path fill="#F8F9FA" d="M10.367.37C9.593-.077 8.419-.126 7.748.262L.455 4.478c-.67.387-.586 1.066.188 1.513L163.14 99.927c.776.447 1.948.496 2.621.108l7.292-4.215c.67-.388.586-1.067-.19-1.514L10.367.37z" transform="translate(-960 -313) translate(960 313.5) translate(191.228 33.024)"/>
                    <path fill="#CED4DA" d="M8.964 3.775L6.533 5.18 50.29 30.475 52.721 29.07z" transform="translate(-960 -313) translate(960 313.5) translate(191.228 33.024)"/>
                </g>
                <g>
                    <path fill="#CED4DA" d="M91.616 0L84.324 4.216 140.235 36.537 147.528 32.321z" transform="translate(-960 -313) translate(960 313.5) translate(132.632 70.614)"/>
                    <g>
                        <path fill="#CED4DA" d="M0 20.593c0-.246.003-1.147 0-1.397s.146-.488.453-.666L32.055.262c.671-.388 1.845-.34 2.62.108L65.9 18.422c.417.24.633.547.641.84.007.252-.009 1.154 0 1.4.009.254-.14.498-.453.679L34.486 39.609c-.67.388-1.844.34-2.619-.108L.641 21.449C.217 21.204 0 20.891 0 20.593z" transform="translate(-960 -313) translate(960 313.5) translate(132.632 70.614) translate(0 32.76)"/>
                        <path fill="#F8F9FA" d="M34.674.37c-.774-.447-1.948-.496-2.619-.108L.453 18.53c-.671.388-.587 1.066.188 1.514l31.226 18.051c.775.448 1.948.497 2.619.109l31.602-18.269c.671-.387.587-1.066-.188-1.513L34.674.37z" transform="translate(-960 -313) translate(960 313.5) translate(132.632 70.614) translate(0 32.76)"/>
                        <path fill="#CED4DA" d="M8.961 17.828L6.53 19.233 17.469 25.557 19.9 24.151zM29.624 28.367L25.978 30.475 33.271 34.691 36.917 32.583zM12.608 15.72L10.177 17.125 25.978 26.259 28.409 24.854z" transform="translate(-960 -313) translate(960 313.5) translate(132.632 70.614) translate(0 32.76)"/>
                        <path fill="#FFF" fill-opacity=".1" d="M56.795 13.158L49.374 8.868 2.884 21.341 10.304 25.63zM61.227 15.72L59.011 14.439 12.52 26.911 14.736 28.192z" transform="translate(-960 -313) translate(960 313.5) translate(132.632 70.614) translate(0 32.76)"/>
                    </g>
                    <g>
                        <path fill="#CED4DA" d="M0 20.593c0-.246.003-1.147 0-1.397s.146-.488.453-.666L32.055.262c.671-.388 1.845-.34 2.62.108L65.9 18.422c.417.24.633.547.641.84.007.252-.009 1.154 0 1.4.009.254-.14.498-.453.679L34.486 39.609c-.67.388-1.844.34-2.619-.108L.641 21.449C.217 21.204 0 20.891 0 20.593z" transform="translate(-960 -313) translate(960 313.5) translate(132.632 70.614) translate(43.757 58.055)"/>
                        <path fill="#F8F9FA" d="M34.674.37c-.774-.447-1.948-.496-2.619-.108L.453 18.53c-.671.388-.587 1.066.188 1.514l31.226 18.051c.775.448 1.948.497 2.619.109l31.602-18.269c.671-.387.587-1.066-.188-1.513L34.674.37z" transform="translate(-960 -313) translate(960 313.5) translate(132.632 70.614) translate(43.757 58.055)"/>
                        <path fill="#CED4DA" d="M8.961 17.828L6.53 19.233 17.469 25.557 19.9 24.151zM29.624 28.367L25.978 30.475 33.271 34.691 36.917 32.583zM12.608 15.72L10.177 17.125 25.978 26.259 28.409 24.854z" transform="translate(-960 -313) translate(960 313.5) translate(132.632 70.614) translate(43.757 58.055)"/>
                        <path fill="#FFF" fill-opacity=".1" d="M56.795 13.158L49.374 8.868 2.884 21.341 10.304 25.63zM61.227 15.72L59.011 14.439 12.52 26.911 14.736 28.192z" transform="translate(-960 -313) translate(960 313.5) translate(132.632 70.614) translate(43.757 58.055)"/>
                    </g>
                    <g>
                        <path fill="#CED4DA" d="M0 20.593c0-.246.003-1.147 0-1.397s.146-.488.453-.666L32.055.262c.671-.388 1.845-.34 2.62.108L65.9 18.422c.417.24.633.547.641.84.007.252-.009 1.154 0 1.4.009.254-.14.498-.453.679L34.486 39.609c-.67.388-1.844.34-2.619-.108L.641 21.449C.217 21.204 0 20.891 0 20.593z" transform="translate(-960 -313) translate(960 313.5) translate(132.632 70.614) translate(87.522 83.354)"/>
                        <path fill="#F8F9FA" d="M34.674.37c-.774-.447-1.948-.496-2.619-.108L.453 18.53c-.671.388-.587 1.066.188 1.514l31.226 18.051c.775.448 1.948.497 2.619.109l31.602-18.269c.671-.387.587-1.066-.188-1.513L34.674.37z" transform="translate(-960 -313) translate(960 313.5) translate(132.632 70.614) translate(87.522 83.354)"/>
                        <path fill="#CED4DA" d="M8.961 17.828L6.53 19.233 17.469 25.557 19.9 24.151zM29.624 28.367L25.978 30.475 33.271 34.691 36.917 32.583zM12.608 15.72L10.177 17.125 25.978 26.259 28.409 24.854z" transform="translate(-960 -313) translate(960 313.5) translate(132.632 70.614) translate(87.522 83.354)"/>
                        <path fill="#FFF" fill-opacity=".1" d="M56.795 13.158L49.374 8.868 2.884 21.341 10.304 25.63zM61.227 15.72L59.011 14.439 12.52 26.911 14.736 28.192z" transform="translate(-960 -313) translate(960 313.5) translate(132.632 70.614) translate(87.522 83.354)"/>
                    </g>
                    <g>
                        <path fill="#CED4DA" d="M0 20.593c0-.246.003-1.147 0-1.397s.146-.488.453-.666L32.055.262c.671-.388 1.845-.34 2.62.108L65.9 18.422c.417.24.633.547.641.84.007.252-.009 1.154 0 1.4.009.254-.14.498-.453.679L34.486 39.609c-.67.388-1.844.34-2.619-.108L.641 21.449C.217 21.204 0 20.891 0 20.593z" transform="translate(-960 -313) translate(960 313.5) translate(132.632 70.614) translate(131.279 58.06)"/>
                        <path fill="#F8F9FA" d="M34.674.37c-.774-.447-1.948-.496-2.619-.108L.453 18.53c-.671.388-.587 1.066.188 1.514l31.226 18.051c.775.448 1.948.497 2.619.109l31.602-18.269c.671-.387.587-1.066-.188-1.513L34.674.37z" transform="translate(-960 -313) translate(960 313.5) translate(132.632 70.614) translate(131.279 58.06)"/>
                        <path fill="#CED4DA" d="M8.961 17.828L6.53 19.233 17.469 25.557 19.9 24.151zM29.624 28.367L25.978 30.475 33.271 34.691 36.917 32.583zM12.608 15.72L10.177 17.125 25.978 26.259 28.409 24.854z" transform="translate(-960 -313) translate(960 313.5) translate(132.632 70.614) translate(131.279 58.06)"/>
                        <path fill="#FFF" fill-opacity=".1" d="M56.795 13.158L49.374 8.868 2.884 21.341 10.304 25.63zM61.227 15.72L59.011 14.439 12.52 26.911 14.736 28.192z" transform="translate(-960 -313) translate(960 313.5) translate(132.632 70.614) translate(131.279 58.06)"/>
                    </g>
                    <g>
                        <path fill="#CED4DA" d="M0 20.593c0-.246.003-1.147 0-1.397s.146-.488.453-.666L32.055.262c.671-.388 1.845-.34 2.62.108L65.9 18.422c.417.24.633.547.641.84.007.252-.009 1.154 0 1.4.009.254-.14.498-.453.679L34.486 39.609c-.67.388-1.844.34-2.619-.108L.641 21.449C.217 21.204 0 20.891 0 20.593z" transform="translate(-960 -313) translate(960 313.5) translate(132.632 70.614) translate(87.514 32.76)"/>
                        <path fill="#F8F9FA" d="M34.674.37c-.774-.447-1.948-.496-2.619-.108L.453 18.53c-.671.388-.587 1.066.188 1.514l31.226 18.051c.775.448 1.948.497 2.619.109l31.602-18.269c.671-.387.587-1.066-.188-1.513L34.674.37z" transform="translate(-960 -313) translate(960 313.5) translate(132.632 70.614) translate(87.514 32.76)"/>
                        <path fill="#CED4DA" d="M8.961 17.828L6.53 19.233 17.469 25.557 19.9 24.151zM29.624 28.367L25.978 30.475 33.271 34.691 36.917 32.583zM12.608 15.72L10.177 17.125 25.978 26.259 28.409 24.854z" transform="translate(-960 -313) translate(960 313.5) translate(132.632 70.614) translate(87.514 32.76)"/>
                        <path fill="#FFF" fill-opacity=".1" d="M56.795 13.158L49.374 8.868 2.884 21.341 10.304 25.63zM61.227 15.72L59.011 14.439 12.52 26.911 14.736 28.192z" transform="translate(-960 -313) translate(960 313.5) translate(132.632 70.614) translate(87.514 32.76)"/>
                    </g>
                    <g>
                        <path fill="#CED4DA" d="M0 20.593c0-.246.003-1.147 0-1.397s.146-.488.453-.666L32.055.262c.671-.388 1.845-.34 2.62.108L65.9 18.422c.417.24.633.547.641.84.007.252-.009 1.154 0 1.4.009.254-.14.498-.453.679L34.486 39.609c-.67.388-1.844.34-2.619-.108L.641 21.449C.217 21.204 0 20.891 0 20.593z" transform="translate(-960 -313) translate(960 313.5) translate(132.632 70.614) translate(43.76 7.467)"/>
                        <path fill="#F8F9FA" d="M34.674.37c-.774-.447-1.948-.496-2.619-.108L.453 18.53c-.671.388-.587 1.066.188 1.514l31.226 18.051c.775.448 1.948.497 2.619.109l31.602-18.269c.671-.387.587-1.066-.188-1.513L34.674.37z" transform="translate(-960 -313) translate(960 313.5) translate(132.632 70.614) translate(43.76 7.467)"/>
                        <path fill="#CED4DA" d="M8.961 17.828L6.53 19.233 17.469 25.557 19.9 24.151zM29.624 28.367L25.978 30.475 33.271 34.691 36.917 32.583zM12.608 15.72L10.177 17.125 25.978 26.259 28.409 24.854z" transform="translate(-960 -313) translate(960 313.5) translate(132.632 70.614) translate(43.76 7.467)"/>
                        <path fill="#FFF" fill-opacity=".1" d="M56.795 13.158L49.374 8.868 2.884 21.341 10.304 25.63zM61.227 15.72L59.011 14.439 12.52 26.911 14.736 28.192z" transform="translate(-960 -313) translate(960 313.5) translate(132.632 70.614) translate(43.76 7.467)"/>
                    </g>
                </g>
                <g>
                    <path fill="#35C25E" fill-opacity=".2" d="M54.122 31.286c-.775-.447-1.948-.496-2.62-.108L.453 60.688c-.67.388-.586 1.066.189 1.514l128.464 74.262c.775.447 1.948.496 2.619.108l51.05-29.51c.671-.388.586-1.066-.188-1.514L54.122 31.286z" transform="translate(-960 -313) translate(960 313.5) translate(69.474 93.45)"/>
                    <g fill="url(#wrysp4dw5c)" transform="translate(-960 -313) translate(960 313.5) translate(69.474 93.45) matrix(-1 0 0 1 30.927 20.588)">
                        <path d="M14.436 21.18L19.248 23.991 9.624 28.105 0 12.749 4.812 15.559 4.812 0 14.436 5.621z"/>
                    </g>
                    <g fill="url(#tpwy2wt31d)" transform="translate(-960 -313) translate(960 313.5) translate(69.474 93.45) translate(55.062 71.177)">
                        <path d="M14.586 21.18L19.448 23.991 9.724 28.105 0 12.749 4.862 15.559 4.862 0 14.586 5.621z"/>
                    </g>
                    <g fill="url(#wrysp4dw5c)" transform="translate(-960 -313) translate(960 313.5) translate(69.474 93.45) matrix(-1 0 0 1 162.198 96.472)">
                        <path d="M14.436 21.18L19.248 23.991 9.624 28.105 0 12.749 4.812 15.559 4.812 0 14.436 5.621z"/>
                    </g>
                    <path fill="#259F4A" d="M0 33.24v-2.81c0-.247.149-.482.453-.658L51.503.262c.67-.388 1.844-.34 2.619.108l128.464 74.262c.436.252.653.577.64.882-.01.237.02 2.517 0 2.827-.017.231-.166.45-.452.616l-51.05 29.51c-.67.388-1.844.34-2.619-.109L.641 34.097c-.424-.245-.64-.559-.64-.857z" transform="translate(-960 -313) translate(960 313.5) translate(69.474 93.45)"/>
                    <path fill="#35C25E" d="M54.122.37c-.775-.447-1.948-.496-2.62-.108L.453 29.772c-.67.388-.586 1.067.189 1.514l128.464 74.262c.775.448 1.948.496 2.619.109l51.05-29.511c.671-.388.586-1.066-.188-1.514L54.122.37z" transform="translate(-960 -313) translate(960 313.5) translate(69.474 93.45)"/>
                    <path fill="#AFF3BD" d="M52.718 5.18L47.856 7.991 91.457 33.195 96.319 30.385z" transform="translate(-960 -313) translate(960 313.5) translate(69.474 93.45)"/>
                    <path fill="#EBFBEF" d="M44.398 11.612c-.775-.447-1.948-.496-2.619-.108L10.177 29.772c-.671.388-.587 1.067.188 1.514L41.59 49.337c.775.448 1.948.497 2.619.109l31.602-18.268c.671-.388.587-1.067-.188-1.514L44.398 11.612z" transform="translate(-960 -313) translate(960 313.5) translate(69.474 93.45)"/>
                    <path fill="#62DD81" d="M18.685 29.07L16.254 30.475 27.193 36.799 29.624 35.393zM39.348 39.609L35.702 41.717 42.995 45.933 46.641 43.825zM22.331 26.962L19.9 28.367 35.702 37.501 38.133 36.096z" transform="translate(-960 -313) translate(960 313.5) translate(69.474 93.45)"/>
                    <path fill="#EBFBEF" d="M88.155 36.907c-.775-.447-1.948-.496-2.62-.108L53.935 55.067c-.671.388-.587 1.066.188 1.514l31.226 18.051c.775.448 1.948.497 2.62.109l31.601-18.269c.671-.388.587-1.066-.188-1.514l-31.226-18.05z" transform="translate(-960 -313) translate(960 313.5) translate(69.474 93.45)"/>
                    <path fill="#62DD81" d="M62.442 54.364L60.011 55.77 70.95 62.093 73.381 60.688zM83.105 64.904L79.459 67.012 86.752 71.228 90.398 69.12zM66.089 52.257L63.658 53.662 79.459 62.796 81.89 61.391z" transform="translate(-960 -313) translate(960 313.5) translate(69.474 93.45)"/>
                    <path fill="#EBFBEF" d="M131.912 62.202c-.774-.448-1.948-.496-2.619-.109L97.691 80.362c-.67.388-.587 1.066.188 1.514l31.226 18.05c.775.448 1.948.497 2.619.11l31.602-18.269c.671-.388.587-1.066-.188-1.514l-31.226-18.051z" transform="translate(-960 -313) translate(960 313.5) translate(69.474 93.45)"/>
                    <path fill="#62DD81" d="M106.199 79.659L103.768 81.064 114.707 87.388 117.138 85.983zM126.862 90.199L123.216 92.307 130.509 96.522 134.155 94.414zM109.846 77.551L107.415 78.957 123.216 88.091 125.647 86.685z" transform="translate(-960 -313) translate(960 313.5) translate(69.474 93.45)"/>
                    <path fill="#FFF" fill-opacity=".1" d="M103.851 29.022L94.255 23.474 21.199 43.074 30.795 48.621zM113.62 34.765L108.758 31.954 35.702 51.554 40.564 54.364z" transform="translate(-960 -313) translate(960 313.5) translate(69.474 93.45)"/>
                </g>
            </g>
        </g>
    </g>
</svg>
